<?xml version="1.0" encoding="UTF-8" standalone="no"?>
<!-- Created with Inkscape (http://www.inkscape.org/) -->

<svg
   xmlns:dc="http://purl.org/dc/elements/1.1/"
   xmlns:cc="http://creativecommons.org/ns#"
   xmlns:rdf="http://www.w3.org/1999/02/22-rdf-syntax-ns#"
   xmlns:svg="http://www.w3.org/2000/svg"
   xmlns="http://www.w3.org/2000/svg"
   xmlns:xlink="http://www.w3.org/1999/xlink"
   xmlns:sodipodi="http://sodipodi.sourceforge.net/DTD/sodipodi-0.dtd"
   xmlns:inkscape="http://www.inkscape.org/namespaces/inkscape"
   width="267.03479"
   height="314.28574"
   id="svg2"
   version="1.1"
   inkscape:version="0.48.3.1 r9886"
   sodipodi:docname="Documento nuevo 1">
  <defs
     id="defs4">
    <linearGradient
       inkscape:collect="always"
       id="linearGradient2999">
      <stop
         style="stop-color:#333333;stop-opacity:1;"
         offset="0"
         id="stop3001" />
      <stop
         style="stop-color:#999999;stop-opacity:1"
         offset="1"
         id="stop3003" />
    </linearGradient>
    <linearGradient
       inkscape:collect="always"
       id="linearGradient2991">
      <stop
         style="stop-color:#333333;stop-opacity:1;"
         offset="0"
         id="stop2993" />
      <stop
         style="stop-color:#b3b3b3;stop-opacity:1"
         offset="1"
         id="stop2995" />
    </linearGradient>
    <linearGradient
       inkscape:collect="always"
       xlink:href="#linearGradient2991"
       id="linearGradient2997"
       x1="360"
       y1="466.64789"
       x2="28.571421"
       y2="623.79077"
       gradientUnits="userSpaceOnUse" />
    <linearGradient
       inkscape:collect="always"
       xlink:href="#linearGradient2999"
       id="linearGradient3005"
       x1="365.71429"
       y1="326.64789"
       x2="134.28572"
       y2="369.50504"
       gradientUnits="userSpaceOnUse" />
    <clipPath
       clipPathUnits="userSpaceOnUse"
       id="clipPath3007">
      <rect
         style="opacity:0.98999999;fill:#0000ff;fill-opacity:1;stroke:none"
         id="rect3009"
         width="485.71429"
         height="185.71428"
         x="31.428585"
         y="406.64795" />
    </clipPath>
    <linearGradient
       inkscape:collect="always"
       xlink:href="#linearGradient2991"
       id="linearGradient3083"
       gradientUnits="userSpaceOnUse"
       x1="360"
       y1="466.64789"
       x2="28.571421"
       y2="623.79077" />
    <linearGradient
       inkscape:collect="always"
       xlink:href="#linearGradient2999"
       id="linearGradient3085"
       gradientUnits="userSpaceOnUse"
       x1="365.71429"
       y1="326.64789"
       x2="134.28572"
       y2="369.50504" />
  </defs>
  <sodipodi:namedview
     id="base"
     pagecolor="#ffffff"
     bordercolor="#666666"
     borderopacity="1.0"
     inkscape:pageopacity="0.0"
     inkscape:pageshadow="2"
     inkscape:zoom="0.7"
     inkscape:cx="48.478582"
     inkscape:cy="194.96649"
     inkscape:document-units="px"
     inkscape:current-layer="layer1"
     showgrid="false"
     showguides="true"
     inkscape:guide-bbox="true"
     fit-margin-top="0"
     fit-margin-left="0"
     fit-margin-right="0"
     fit-margin-bottom="0"
     inkscape:window-width="804"
     inkscape:window-height="783"
     inkscape:window-x="0"
     inkscape:window-y="0"
     inkscape:window-maximized="0" />
  <metadata
     id="metadata7">
    <rdf:RDF>
      <cc:Work
         rdf:about="">
        <dc:format>image/svg+xml</dc:format>
        <dc:type
           rdf:resource="http://purl.org/dc/dcmitype/StillImage" />
        <dc:title></dc:title>
      </cc:Work>
    </rdf:RDF>
  </metadata>
  <g
     inkscape:label="Capa 1"
     inkscape:groupmode="layer"
     id="layer1"
     transform="translate(-118.67947,-263.79076)">
    <g
       id="g3073">
      <path
         transform="matrix(1.1260504,0,0,1,-32.533015,-14.285714)"
         clip-path="url(#clipPath3007)"
         sodipodi:open="true"
         sodipodi:end="6.2671683"
         sodipodi:start="0"
         d="m 371.42857,588.07648 c 0,93.8884 -53.08623,170 -118.57142,170 -65.48519,0 -118.57143,-76.1116 -118.57143,-170 0,-93.88841 53.08624,-170 118.57143,-170 64.74474,0 117.51924,74.46232 118.55621,167.27722"
         sodipodi:ry="170"
         sodipodi:rx="118.57143"
         sodipodi:cy="588.07648"
         sodipodi:cx="252.85715"
         id="path2987"
         style="opacity:0.98999999;fill:url(#linearGradient3083);fill-opacity:1;stroke:none"
         sodipodi:type="arc" />
      <path
         transform="translate(2.8571429,14.285714)"
         sodipodi:open="true"
         sodipodi:end="6.2671683"
         sodipodi:start="0"
         d="m 340,338.07648 c 0,48.91665 -39.65478,88.57142 -88.57143,88.57142 -48.91664,0 -88.57142,-39.65477 -88.57142,-88.57142 0,-48.91665 39.65478,-88.57143 88.57142,-88.57143 48.36355,0 87.78546,38.7955 88.56007,87.15284"
         sodipodi:ry="88.571426"
         sodipodi:rx="88.571426"
         sodipodi:cy="338.07648"
         sodipodi:cx="251.42857"
         id="path2985"
         style="opacity:0.98999999;fill:url(#linearGradient3085);fill-opacity:1;stroke:none"
         sodipodi:type="arc" />
      <path
         transform="matrix(1.025,0,0,1,-189.07143,87.142858)"
         sodipodi:open="true"
         sodipodi:end="6.2671683"
         sodipodi:start="0"
         d="m 448.57142,275.21933 c 0,7.88978 -6.39593,14.28571 -14.28571,14.28571 -7.88979,0 -14.28572,-6.39593 -14.28572,-14.28571 0,-7.88978 6.39593,-14.28571 14.28572,-14.28571 7.80057,0 14.15894,6.25733 14.28388,14.05691"
         sodipodi:ry="14.285714"
         sodipodi:rx="14.285714"
         sodipodi:cy="275.21933"
         sodipodi:cx="434.28571"
         id="path3011"
         style="opacity:0.98999999;fill:#f9f9f9;fill-opacity:1;stroke:none"
         sodipodi:type="arc" />
      <path
         transform="translate(-132.14285,88.571421)"
         sodipodi:open="true"
         sodipodi:end="6.2671683"
         sodipodi:start="0"
         d="m 448.57142,275.21933 c 0,7.88978 -6.39593,14.28571 -14.28571,14.28571 -7.88979,0 -14.28572,-6.39593 -14.28572,-14.28571 0,-7.88978 6.39593,-14.28571 14.28572,-14.28571 7.80057,0 14.15894,6.25733 14.28388,14.05691"
         sodipodi:ry="14.285714"
         sodipodi:rx="14.285714"
         sodipodi:cy="275.21933"
         sodipodi:cx="434.28571"
         id="path3011-0"
         style="opacity:0.98999999;fill:#f9f9f9;fill-opacity:1;stroke:none"
         sodipodi:type="arc" />
      <path
         transform="translate(-25.714285,-86.428572)"
         inkscape:transform-center-y="-3.3928571"
         d="m 305.71429,454.50505 11.75321,20.35714 -23.50641,0 z"
         inkscape:randomized="0"
         inkscape:rounded="0"
         inkscape:flatsided="true"
         sodipodi:arg2="-0.52359878"
         sodipodi:arg1="-1.5707963"
         sodipodi:r2="6.7857141"
         sodipodi:r1="13.571429"
         sodipodi:cy="468.07648"
         sodipodi:cx="305.71429"
         sodipodi:sides="3"
         id="path3031"
         style="opacity:0.98999999;fill:#f9f9f9;fill-opacity:1;stroke:none"
         sodipodi:type="star" />
      <path
         transform="translate(-121.42857,-22.857143)"
         sodipodi:open="true"
         sodipodi:end="6.2671683"
         sodipodi:start="0"
         d="m 400.71429,429.86218 c 0,3.74765 -7.99491,6.78572 -17.85714,6.78572 -9.86223,0 -17.85715,-3.03807 -17.85715,-6.78572 0,-3.74764 7.99492,-6.78571 17.85715,-6.78571 9.75071,0 17.69868,2.97223 17.85485,6.67703"
         sodipodi:ry="6.7857141"
         sodipodi:rx="17.857143"
         sodipodi:cy="429.86218"
         sodipodi:cx="382.85715"
         id="path3035"
         style="opacity:0.98999999;fill:#f9f9f9;fill-opacity:1;stroke:none"
         sodipodi:type="arc" />
      <path
         transform="matrix(0.34999999,0,0,0.34999999,103.00001,263.89257)"
         sodipodi:open="true"
         sodipodi:end="6.2671683"
         sodipodi:start="0"
         d="m 448.57142,275.21933 c 0,7.88978 -6.39593,14.28571 -14.28571,14.28571 -7.88979,0 -14.28572,-6.39593 -14.28572,-14.28571 0,-7.88978 6.39593,-14.28571 14.28572,-14.28571 7.80057,0 14.15894,6.25733 14.28388,14.05691"
         sodipodi:ry="14.285714"
         sodipodi:rx="14.285714"
         sodipodi:cy="275.21933"
         sodipodi:cx="434.28571"
         id="path3011-3"
         style="opacity:0.98999999;fill:#1a1a1a;fill-opacity:1;stroke:none"
         sodipodi:type="arc" />
      <path
         transform="matrix(0.34999999,0,0,0.34999999,145.14287,264.60685)"
         sodipodi:open="true"
         sodipodi:end="6.2671683"
         sodipodi:start="0"
         d="m 448.57142,275.21933 c 0,7.88978 -6.39593,14.28571 -14.28571,14.28571 -7.88979,0 -14.28572,-6.39593 -14.28572,-14.28571 0,-7.88978 6.39593,-14.28571 14.28572,-14.28571 7.80057,0 14.15894,6.25733 14.28388,14.05691"
         sodipodi:ry="14.285714"
         sodipodi:rx="14.285714"
         sodipodi:cy="275.21933"
         sodipodi:cx="434.28571"
         id="path3011-3-1"
         style="opacity:0.98999999;fill:#1a1a1a;fill-opacity:1;stroke:none"
         sodipodi:type="arc" />
    </g>
  </g>
</svg>
